<svg width="72" height="33" viewBox="0 0 72 33" fill="none" xmlns="http://www.w3.org/2000/svg">
<path d="M31.3446 4.15478V5.66156C30.2078 4.35539 28.6164 3.70453 26.5612 3.70453C24.5061 3.70453 22.6338 4.52479 21.136 6.16085C20.387 6.9811 19.8253 7.89052 19.4509 8.89355C19.0764 9.89659 18.8892 10.9932 18.8892 12.179C18.8892 12.179 18.8892 12.1746 18.8892 12.1701C18.8892 12.1701 18.8892 12.1701 18.8892 12.1746C18.8892 14.5507 19.6381 16.5567 21.136 18.1928C22.6338 19.8288 24.4437 20.6491 26.5612 20.6491C28.6788 20.6491 30.2078 19.9938 31.3446 18.6876V20.1989H36.1592V4.15478H31.3446ZM23.7037 12.179C23.7037 10.9799 24.0559 10.0259 24.7647 9.32151C25.4691 8.61716 26.3874 8.26053 27.5242 8.26053C28.6609 8.26053 29.5793 8.61716 30.2836 9.32151C30.9924 10.0259 31.3446 10.9799 31.3446 12.179C31.3446 12.2548 31.3446 12.3262 31.3357 12.3975C31.3 13.4941 30.9478 14.3723 30.2836 15.0366C29.5793 15.7409 28.6565 16.0931 27.5242 16.0931C26.3918 16.0931 25.4691 15.7409 24.7647 15.0366C24.0604 14.3322 23.7037 13.3782 23.7037 12.179Z" fill="url(#paint0_radial_1_1477)"/>
<path d="M62.5055 4.15482V12.9191C62.5055 14.0113 62.238 14.836 61.7031 15.3888C61.1681 15.946 60.4415 16.2224 59.5187 16.2224C58.7073 16.2224 58.0386 15.9728 57.5126 15.469C56.9866 14.9653 56.728 14.2431 56.728 13.3025V4.15482H51.9135V14.0068C51.9135 16.0842 52.4841 17.7069 53.6298 18.8838C54.7754 20.0607 56.202 20.6491 57.9138 20.6491C60.009 20.6491 61.5426 19.9983 62.5055 18.6921V20.1989H67.32V4.15482H62.5055Z" fill="url(#paint1_radial_1_1477)"/>
<path d="M39.36 6.20097V10.5162H42.8283V15.3977C42.8283 16.5478 42.9977 17.4483 43.2696 18.1527C43.5727 18.9551 44.0141 19.5034 44.4955 19.8779C45.8641 20.9389 47.5759 20.6001 47.5759 20.6001V0H43.7689C43.2562 5.84434 39.36 6.20097 39.36 6.20097Z" fill="url(#paint2_radial_1_1477)"/>
<path d="M15.3897 12.1657C14.8414 11.4257 14.186 10.8952 13.4148 10.5742C12.6436 10.2532 11.8724 9.99468 11.1056 9.78962C10.3344 9.58455 9.67462 9.38395 9.13075 9.17888C8.96581 9.11647 8.82316 9.0496 8.70725 8.97827C8.44423 8.81333 8.3105 8.61718 8.3105 8.39429C8.3105 8.22043 8.34616 8.07332 8.4264 7.94849C8.4264 7.94404 8.43086 7.94404 8.43532 7.93958C8.4799 7.86379 8.54231 7.80138 8.61363 7.74789C8.64484 7.7256 8.68496 7.71222 8.72062 7.68993C8.76966 7.66319 8.8187 7.62752 8.87665 7.60969C8.94352 7.5874 9.02376 7.56957 9.10401 7.5562C9.14413 7.54728 9.17979 7.53391 9.22883 7.52499C9.35811 7.50716 9.50522 7.49824 9.6657 7.49824C10.584 7.49824 11.3018 7.97078 11.8144 8.91141L15.8221 6.74931L15.9246 6.69582C15.7864 6.464 15.6393 6.24557 15.4788 6.0405C14.8859 5.24253 14.1548 4.61397 13.29 4.14588C12.1978 3.55744 10.9897 3.26321 9.6657 3.26321C7.88699 3.26321 6.39359 3.72238 5.18549 4.64071C4.12005 5.45651 3.52268 6.55762 3.3934 7.95741C3.38003 8.14018 3.37111 8.32742 3.37111 8.52357C3.37111 9.55335 3.64751 10.4182 4.19137 11.127C4.73524 11.8313 5.39501 12.3529 6.16623 12.6828C6.93745 13.0127 7.70422 13.2802 8.47544 13.4852C9.24666 13.6903 9.90643 13.8954 10.4503 14.1093C10.9942 14.3233 11.2706 14.5908 11.2706 14.9118C11.2706 14.9786 11.2616 15.0411 11.2483 15.1035C11.2438 15.1258 11.2394 15.148 11.2349 15.1659C11.2215 15.2105 11.2037 15.2506 11.1859 15.2907C11.1769 15.313 11.168 15.3353 11.1547 15.3531C11.1324 15.3932 11.1012 15.4289 11.07 15.4646C11.0566 15.4779 11.0432 15.4958 11.0298 15.5136C10.9808 15.5626 10.9228 15.6072 10.8604 15.6429C10.8248 15.6652 10.7846 15.6875 10.7401 15.7053C10.4548 15.839 10.0535 15.9059 9.54088 15.9059C8.35507 15.9059 7.52144 15.4512 7.03553 14.5328C6.95529 14.3857 6.88396 14.2208 6.82155 14.0425C6.81709 14.0336 6.81709 14.0246 6.81263 14.0157L6.78588 14.0291L6.3713 14.2698L5.99237 14.4838L2.64001 16.3873C2.70688 16.5255 2.77375 16.6548 2.84508 16.7841C3.01448 17.0872 3.19726 17.3725 3.40232 17.6356C4.71741 19.3519 6.7636 20.2078 9.54088 20.2078C11.4221 20.2078 13.0047 19.7665 14.2886 18.8749C15.5725 17.9877 16.2144 16.6771 16.2144 14.9474V14.9251C16.2144 14.3456 16.1386 13.8196 15.9826 13.3381C15.8488 12.9057 15.6572 12.5179 15.3986 12.1701L15.3897 12.1657ZM15.0821 5.69278C15.0821 5.69278 15.0821 5.69278 15.0776 5.69278C15.091 5.70616 15.1088 5.71507 15.1222 5.72845C15.1088 5.71507 15.0955 5.70616 15.0821 5.69724V5.69278ZM14.351 5.16229C14.2172 5.07759 14.0746 4.99735 13.9319 4.92156C14.0746 4.99735 14.2128 5.07759 14.351 5.16229ZM14.7923 5.46543C14.7032 5.39856 14.6051 5.33615 14.5115 5.27374C14.6051 5.33615 14.6987 5.39856 14.7923 5.46543Z" fill="url(#paint3_radial_1_1477)"/>
<path d="M6.81377 29.9205C6.81377 30.259 6.72914 30.5481 6.55987 30.7877C6.3932 31.0246 6.15883 31.2056 5.85674 31.3306C5.55466 31.4556 5.19919 31.5181 4.79034 31.5181C4.57419 31.5181 4.36976 31.5077 4.17706 31.4869C3.98435 31.466 3.80726 31.4361 3.64581 31.397C3.48435 31.358 3.34242 31.3098 3.22002 31.2525V30.6158C3.41534 30.6965 3.65362 30.772 3.93487 30.8423C4.21612 30.9101 4.51039 30.9439 4.81768 30.9439C5.10414 30.9439 5.34633 30.9061 5.54424 30.8306C5.74216 30.7525 5.8919 30.6418 5.99346 30.4986C6.09763 30.3528 6.14971 30.1783 6.14971 29.9752C6.14971 29.7798 6.10674 29.6171 6.02081 29.4869C5.93487 29.3541 5.79164 29.2343 5.59112 29.1275C5.3932 29.0181 5.12237 28.9022 4.77862 28.7798C4.53643 28.6939 4.32289 28.6002 4.13799 28.4986C3.9531 28.3944 3.79815 28.2772 3.67315 28.147C3.54815 28.0168 3.4531 27.8658 3.38799 27.6939C3.32549 27.522 3.29424 27.3254 3.29424 27.1041C3.29424 26.7994 3.37107 26.539 3.52471 26.3228C3.68096 26.1041 3.89581 25.9374 4.16924 25.8228C4.44528 25.7056 4.76169 25.647 5.11846 25.647C5.42315 25.647 5.7044 25.6757 5.96221 25.733C6.22263 25.7903 6.46091 25.8671 6.67706 25.9634L6.47002 26.5338C6.26429 26.4478 6.04554 26.3762 5.81377 26.3189C5.58461 26.2616 5.34763 26.233 5.10284 26.233C4.85804 26.233 4.65101 26.2694 4.48174 26.3423C4.31508 26.4127 4.18747 26.5129 4.09893 26.6431C4.01039 26.7733 3.96612 26.9283 3.96612 27.108C3.96612 27.3085 4.00778 27.4752 4.09112 27.608C4.17706 27.7408 4.31247 27.8593 4.49737 27.9634C4.68487 28.065 4.93226 28.1718 5.23956 28.2838C5.57549 28.4061 5.86065 28.5364 6.09502 28.6744C6.3294 28.8098 6.50778 28.9765 6.63018 29.1744C6.75258 29.3697 6.81377 29.6184 6.81377 29.9205ZM9.53252 27.0806C9.89711 27.0806 10.2096 27.1614 10.47 27.3228C10.7304 27.4843 10.9297 27.7108 11.0677 28.0025C11.2057 28.2916 11.2747 28.6301 11.2747 29.0181V29.4205H8.31768C8.32549 29.9231 8.45049 30.3059 8.69268 30.5689C8.93487 30.8319 9.27601 30.9634 9.71612 30.9634C9.98695 30.9634 10.2265 30.9387 10.4349 30.8892C10.6432 30.8397 10.8593 30.7668 11.0833 30.6705V31.2408C10.8672 31.3371 10.6523 31.4075 10.4388 31.4517C10.2278 31.496 9.97784 31.5181 9.68877 31.5181C9.27732 31.5181 8.91794 31.4348 8.61065 31.2681C8.30596 31.0989 8.06898 30.8515 7.89971 30.5259C7.73044 30.2004 7.64581 29.802 7.64581 29.3306C7.64581 28.8697 7.72263 28.4713 7.87627 28.1353C8.03252 27.7968 8.25127 27.5364 8.53252 27.3541C8.81638 27.1718 9.14971 27.0806 9.53252 27.0806ZM9.52471 27.6119C9.17836 27.6119 8.90232 27.7252 8.69659 27.9517C8.49086 28.1783 8.36846 28.4947 8.3294 28.9009H10.595C10.5924 28.6457 10.5521 28.4218 10.4739 28.2291C10.3984 28.0338 10.2825 27.8827 10.1263 27.7759C9.97002 27.6666 9.7695 27.6119 9.52471 27.6119ZM17.0247 27.0806C17.4961 27.0806 17.8515 27.2043 18.0911 27.4517C18.3307 27.6965 18.4505 28.091 18.4505 28.6353V31.44H17.8099V28.6666C17.8099 28.3202 17.7343 28.0611 17.5833 27.8892C17.4349 27.7147 17.2135 27.6275 16.9192 27.6275C16.5052 27.6275 16.2044 27.7473 16.0169 27.9869C15.8294 28.2265 15.7356 28.5793 15.7356 29.0455V31.44H15.0911V28.6666C15.0911 28.4348 15.0573 28.2421 14.9896 28.0884C14.9245 27.9348 14.8255 27.8202 14.6927 27.7447C14.5625 27.6666 14.3971 27.6275 14.1966 27.6275C13.9127 27.6275 13.6849 27.6861 13.513 27.8033C13.3411 27.9205 13.2161 28.095 13.138 28.3267C13.0625 28.5559 13.0247 28.8384 13.0247 29.1744V31.44H12.3763V27.1588H12.8997L12.9974 27.7642H13.0325C13.1185 27.6158 13.2265 27.4908 13.3567 27.3892C13.487 27.2877 13.6328 27.2108 13.7942 27.1588C13.9557 27.1067 14.1276 27.0806 14.3099 27.0806C14.6354 27.0806 14.9075 27.1418 15.1263 27.2642C15.3476 27.384 15.5078 27.5676 15.6067 27.815H15.6419C15.7825 27.5676 15.9752 27.384 16.22 27.2642C16.4648 27.1418 16.733 27.0806 17.0247 27.0806ZM23.3177 27.1588V31.44H22.7864L22.6927 30.8384H22.6575C22.569 30.9869 22.4544 31.1119 22.3138 31.2134C22.1731 31.315 22.0143 31.3905 21.8372 31.44C21.6627 31.4921 21.4765 31.5181 21.2786 31.5181C20.9401 31.5181 20.6562 31.4634 20.4271 31.3541C20.1979 31.2447 20.0247 31.0754 19.9075 30.8463C19.7929 30.6171 19.7356 30.3228 19.7356 29.9634V27.1588H20.3919V29.9166C20.3919 30.2733 20.4726 30.5403 20.6341 30.7173C20.7955 30.8918 21.0416 30.9791 21.3724 30.9791C21.6901 30.9791 21.9427 30.9192 22.1302 30.7994C22.3203 30.6796 22.457 30.5038 22.5403 30.272C22.6237 30.0377 22.6653 29.7512 22.6653 29.4127V27.1588H23.3177ZM26.2903 27.0884C26.8008 27.0884 27.1797 27.203 27.4271 27.4322C27.6745 27.6614 27.7981 28.0272 27.7981 28.5298V31.44H27.3255L27.2005 30.8072H27.1692C27.0495 30.9634 26.9245 31.095 26.7942 31.2017C26.664 31.3059 26.513 31.3853 26.3411 31.44C26.1718 31.4921 25.9635 31.5181 25.7161 31.5181C25.4557 31.5181 25.2239 31.4726 25.0208 31.3814C24.8203 31.2903 24.6614 31.1522 24.5442 30.9673C24.4297 30.7825 24.3724 30.5481 24.3724 30.2642C24.3724 29.8371 24.5416 29.509 24.8802 29.2798C25.2187 29.0507 25.7343 28.9257 26.4271 28.9048L27.1653 28.8736V28.6119C27.1653 28.2421 27.0859 27.983 26.9271 27.8345C26.7682 27.6861 26.5442 27.6119 26.2552 27.6119C26.0312 27.6119 25.8177 27.6444 25.6146 27.7095C25.4114 27.7746 25.2187 27.8515 25.0364 27.94L24.8372 27.4478C25.0299 27.3489 25.2513 27.2642 25.5013 27.1939C25.7513 27.1236 26.0143 27.0884 26.2903 27.0884ZM27.1575 29.3306L26.5052 29.358C25.9713 29.3788 25.595 29.466 25.3763 29.6197C25.1575 29.7733 25.0481 29.9908 25.0481 30.272C25.0481 30.5168 25.1224 30.6978 25.2708 30.815C25.4192 30.9322 25.6159 30.9908 25.8606 30.9908C26.2409 30.9908 26.5521 30.8853 26.7942 30.6744C27.0364 30.4634 27.1575 30.147 27.1575 29.7252V29.3306ZM32.8021 25.7291C33.539 25.7291 34.0768 25.8736 34.4153 26.1627C34.7565 26.4491 34.9271 26.8606 34.9271 27.397C34.9271 27.6392 34.8867 27.8697 34.806 28.0884C34.7278 28.3046 34.6002 28.496 34.4231 28.6627C34.2461 28.8267 34.013 28.9569 33.7239 29.0533C33.4375 29.147 33.0859 29.1939 32.6692 29.1939H31.9739V31.44H31.3099V25.7291H32.8021ZM32.7396 26.2955H31.9739V28.6236H32.595C32.9596 28.6236 33.263 28.5845 33.5052 28.5064C33.75 28.4283 33.9336 28.302 34.056 28.1275C34.1784 27.9504 34.2396 27.716 34.2396 27.4244C34.2396 27.0442 34.1185 26.7616 33.8763 26.5767C33.6341 26.3892 33.2552 26.2955 32.7396 26.2955ZM37.6263 27.0884C38.1367 27.0884 38.5156 27.203 38.763 27.4322C39.0104 27.6614 39.1341 28.0272 39.1341 28.5298V31.44H38.6614L38.5364 30.8072H38.5052C38.3854 30.9634 38.2604 31.095 38.1302 31.2017C38 31.3059 37.8489 31.3853 37.6771 31.44C37.5078 31.4921 37.2995 31.5181 37.0521 31.5181C36.7916 31.5181 36.5599 31.4726 36.3567 31.3814C36.1562 31.2903 35.9974 31.1522 35.8802 30.9673C35.7656 30.7825 35.7083 30.5481 35.7083 30.2642C35.7083 29.8371 35.8776 29.509 36.2161 29.2798C36.5547 29.0507 37.0703 28.9257 37.763 28.9048L38.5013 28.8736V28.6119C38.5013 28.2421 38.4218 27.983 38.263 27.8345C38.1041 27.6861 37.8802 27.6119 37.5911 27.6119C37.3672 27.6119 37.1536 27.6444 36.9505 27.7095C36.7474 27.7746 36.5547 27.8515 36.3724 27.94L36.1731 27.4478C36.3659 27.3489 36.5872 27.2642 36.8372 27.1939C37.0872 27.1236 37.3502 27.0884 37.6263 27.0884ZM38.4935 29.3306L37.8411 29.358C37.3073 29.3788 36.931 29.466 36.7122 29.6197C36.4935 29.7733 36.3841 29.9908 36.3841 30.272C36.3841 30.5168 36.4583 30.6978 36.6067 30.815C36.7552 30.9322 36.9518 30.9908 37.1966 30.9908C37.5768 30.9908 37.888 30.8853 38.1302 30.6744C38.3724 30.4634 38.4935 30.147 38.4935 29.7252V29.3306ZM41.1146 25.3619V28.5181C41.1146 28.6223 41.1106 28.7499 41.1028 28.9009C41.095 29.0494 41.0885 29.1809 41.0833 29.2955H41.1106C41.1653 29.2278 41.2448 29.1275 41.3489 28.9947C41.4557 28.8619 41.5455 28.7551 41.6185 28.6744L43.0403 27.1588H43.8021L42.0794 28.9869L43.9271 31.44H43.1458L41.6341 29.4127L41.1146 29.8892V31.44H40.47V25.3619H41.1146ZM46.2747 27.0884C46.7851 27.0884 47.164 27.203 47.4114 27.4322C47.6588 27.6614 47.7825 28.0272 47.7825 28.5298V31.44H47.3099L47.1849 30.8072H47.1536C47.0338 30.9634 46.9088 31.095 46.7786 31.2017C46.6484 31.3059 46.4974 31.3853 46.3255 31.44C46.1562 31.4921 45.9479 31.5181 45.7005 31.5181C45.4401 31.5181 45.2083 31.4726 45.0052 31.3814C44.8047 31.2903 44.6458 31.1522 44.5286 30.9673C44.414 30.7825 44.3567 30.5481 44.3567 30.2642C44.3567 29.8371 44.526 29.509 44.8646 29.2798C45.2031 29.0507 45.7187 28.9257 46.4114 28.9048L47.1497 28.8736V28.6119C47.1497 28.2421 47.0703 27.983 46.9114 27.8345C46.7526 27.6861 46.5286 27.6119 46.2396 27.6119C46.0156 27.6119 45.8021 27.6444 45.5989 27.7095C45.3958 27.7746 45.2031 27.8515 45.0208 27.94L44.8216 27.4478C45.0143 27.3489 45.2356 27.2642 45.4856 27.1939C45.7356 27.1236 45.9987 27.0884 46.2747 27.0884ZM47.1419 29.3306L46.4896 29.358C45.9557 29.3788 45.5794 29.466 45.3606 29.6197C45.1419 29.7733 45.0325 29.9908 45.0325 30.272C45.0325 30.5168 45.1067 30.6978 45.2552 30.815C45.4036 30.9322 45.6002 30.9908 45.845 30.9908C46.2252 30.9908 46.5364 30.8853 46.7786 30.6744C47.0208 30.4634 47.1419 30.147 47.1419 29.7252V29.3306ZM49.7669 27.1588V31.44H49.1185V27.1588H49.7669ZM49.4505 25.5572C49.5573 25.5572 49.6484 25.5923 49.7239 25.6627C49.8021 25.7304 49.8411 25.8371 49.8411 25.983C49.8411 26.1262 49.8021 26.233 49.7239 26.3033C49.6484 26.3736 49.5573 26.4088 49.4505 26.4088C49.3385 26.4088 49.2448 26.3736 49.1692 26.3033C49.0963 26.233 49.0599 26.1262 49.0599 25.983C49.0599 25.8371 49.0963 25.7304 49.1692 25.6627C49.2448 25.5923 49.3385 25.5572 49.4505 25.5572ZM56.5403 29.9205C56.5403 30.259 56.4557 30.5481 56.2864 30.7877C56.1198 31.0246 55.8854 31.2056 55.5833 31.3306C55.2812 31.4556 54.9258 31.5181 54.5169 31.5181C54.3008 31.5181 54.0963 31.5077 53.9036 31.4869C53.7109 31.466 53.5338 31.4361 53.3724 31.397C53.2109 31.358 53.069 31.3098 52.9466 31.2525V30.6158C53.1419 30.6965 53.3802 30.772 53.6614 30.8423C53.9427 30.9101 54.237 30.9439 54.5442 30.9439C54.8307 30.9439 55.0729 30.9061 55.2708 30.8306C55.4687 30.7525 55.6185 30.6418 55.72 30.4986C55.8242 30.3528 55.8763 30.1783 55.8763 29.9752C55.8763 29.7798 55.8333 29.6171 55.7474 29.4869C55.6614 29.3541 55.5182 29.2343 55.3177 29.1275C55.1198 29.0181 54.8489 28.9022 54.5052 28.7798C54.263 28.6939 54.0495 28.6002 53.8646 28.4986C53.6797 28.3944 53.5247 28.2772 53.3997 28.147C53.2747 28.0168 53.1797 27.8658 53.1146 27.6939C53.0521 27.522 53.0208 27.3254 53.0208 27.1041C53.0208 26.7994 53.0976 26.539 53.2513 26.3228C53.4075 26.1041 53.6224 25.9374 53.8958 25.8228C54.1718 25.7056 54.4883 25.647 54.845 25.647C55.1497 25.647 55.431 25.6757 55.6888 25.733C55.9492 25.7903 56.1875 25.8671 56.4036 25.9634L56.1966 26.5338C55.9909 26.4478 55.7721 26.3762 55.5403 26.3189C55.3112 26.2616 55.0742 26.233 54.8294 26.233C54.5846 26.233 54.3776 26.2694 54.2083 26.3423C54.0416 26.4127 53.914 26.5129 53.8255 26.6431C53.737 26.7733 53.6927 26.9283 53.6927 27.108C53.6927 27.3085 53.7343 27.4752 53.8177 27.608C53.9036 27.7408 54.039 27.8593 54.2239 27.9634C54.4114 28.065 54.6588 28.1718 54.9661 28.2838C55.3021 28.4061 55.5872 28.5364 55.8216 28.6744C56.056 28.8098 56.2343 28.9765 56.3567 29.1744C56.4791 29.3697 56.5403 29.6184 56.5403 29.9205ZM59.2122 27.0884C59.7226 27.0884 60.1015 27.203 60.3489 27.4322C60.5963 27.6614 60.72 28.0272 60.72 28.5298V31.44H60.2474L60.1224 30.8072H60.0911C59.9713 30.9634 59.8463 31.095 59.7161 31.2017C59.5859 31.3059 59.4349 31.3853 59.263 31.44C59.0937 31.4921 58.8854 31.5181 58.638 31.5181C58.3776 31.5181 58.1458 31.4726 57.9427 31.3814C57.7422 31.2903 57.5833 31.1522 57.4661 30.9673C57.3515 30.7825 57.2942 30.5481 57.2942 30.2642C57.2942 29.8371 57.4635 29.509 57.8021 29.2798C58.1406 29.0507 58.6562 28.9257 59.3489 28.9048L60.0872 28.8736V28.6119C60.0872 28.2421 60.0078 27.983 59.8489 27.8345C59.6901 27.6861 59.4661 27.6119 59.1771 27.6119C58.9531 27.6119 58.7396 27.6444 58.5364 27.7095C58.3333 27.7746 58.1406 27.8515 57.9583 27.94L57.7591 27.4478C57.9518 27.3489 58.1731 27.2642 58.4231 27.1939C58.6731 27.1236 58.9362 27.0884 59.2122 27.0884ZM60.0794 29.3306L59.4271 29.358C58.8932 29.3788 58.5169 29.466 58.2981 29.6197C58.0794 29.7733 57.97 29.9908 57.97 30.272C57.97 30.5168 58.0442 30.6978 58.1927 30.815C58.3411 30.9322 58.5377 30.9908 58.7825 30.9908C59.1627 30.9908 59.4739 30.8853 59.7161 30.6744C59.9583 30.4634 60.0794 30.147 60.0794 29.7252V29.3306ZM63.4388 30.9869C63.5455 30.9869 63.6549 30.9778 63.7669 30.9595C63.8789 30.9413 63.97 30.9192 64.0403 30.8931V31.397C63.9648 31.4309 63.8593 31.4595 63.7239 31.483C63.5911 31.5064 63.4609 31.5181 63.3333 31.5181C63.1067 31.5181 62.901 31.4791 62.7161 31.4009C62.5312 31.3202 62.3828 31.1848 62.2708 30.9947C62.1614 30.8046 62.1067 30.5416 62.1067 30.2056V27.6666H61.4974V27.3502L62.1106 27.0963L62.3685 26.1666H62.7591V27.1588H64.013V27.6666H62.7591V30.1861C62.7591 30.4543 62.8203 30.6548 62.9427 30.7877C63.0677 30.9205 63.233 30.9869 63.4388 30.9869ZM68.4427 27.1588V31.44H67.9114L67.8177 30.8384H67.7825C67.694 30.9869 67.5794 31.1119 67.4388 31.2134C67.2981 31.315 67.1393 31.3905 66.9622 31.44C66.7877 31.4921 66.6015 31.5181 66.4036 31.5181C66.0651 31.5181 65.7812 31.4634 65.5521 31.3541C65.3229 31.2447 65.1497 31.0754 65.0325 30.8463C64.9179 30.6171 64.8606 30.3228 64.8606 29.9634V27.1588H65.5169V29.9166C65.5169 30.2733 65.5976 30.5403 65.7591 30.7173C65.9205 30.8918 66.1666 30.9791 66.4974 30.9791C66.8151 30.9791 67.0677 30.9192 67.2552 30.7994C67.4453 30.6796 67.582 30.5038 67.6653 30.272C67.7487 30.0377 67.7903 29.7512 67.7903 29.4127V27.1588H68.4427Z" fill="url(#paint4_radial_1_1477)"/>
<defs>
<radialGradient id="paint0_radial_1_1477" cx="0" cy="0" r="1" gradientUnits="userSpaceOnUse" gradientTransform="translate(31.6311 24.6734) rotate(-94.015) scale(18.0479 18.6692)">
<stop stop-color="#111333"/>
<stop offset="0.553467" stop-color="#333999"/>
<stop offset="1" stop-color="#434DE3"/>
</radialGradient>
<radialGradient id="paint1_radial_1_1477" cx="0" cy="0" r="1" gradientUnits="userSpaceOnUse" gradientTransform="translate(63.2805 24.5665) rotate(-93.6805) scale(17.5614 16.6613)">
<stop stop-color="#111333"/>
<stop offset="0.553467" stop-color="#333999"/>
<stop offset="1" stop-color="#434DE3"/>
</radialGradient>
<radialGradient id="paint2_radial_1_1477" cx="0" cy="0" r="1" gradientUnits="userSpaceOnUse" gradientTransform="translate(45.4218 25.5563) rotate(-91.5694) scale(21.9505 8.9001)">
<stop stop-color="#111333"/>
<stop offset="0.553467" stop-color="#333999"/>
<stop offset="1" stop-color="#434DE3"/>
</radialGradient>
<radialGradient id="paint3_radial_1_1477" cx="0" cy="0" r="1" gradientUnits="userSpaceOnUse" gradientTransform="translate(12.6553 24.2321) rotate(-93.1578) scale(18.031 14.6879)">
<stop stop-color="#111333"/>
<stop offset="0.553467" stop-color="#333999"/>
<stop offset="1" stop-color="#434DE3"/>
</radialGradient>
<radialGradient id="paint4_radial_1_1477" cx="0" cy="0" r="1" gradientUnits="userSpaceOnUse" gradientTransform="translate(53.0777 35.508) rotate(-115.134) scale(12.3934 70.5784)">
<stop stop-color="#111333"/>
<stop offset="0.553467" stop-color="#333999"/>
<stop offset="1" stop-color="#434DE3"/>
</radialGradient>
</defs>
</svg>
